<?xml version="1.0" encoding="UTF-8" standalone="no"?>
<!DOCTYPE svg PUBLIC "-//W3C//DTD SVG 1.1//EN" "http://www.w3.org/Graphics/SVG/1.1/DTD/svg11.dtd">
<svg width="100%" height="100%" viewBox="0 0 168 100" version="1.1" xmlns="http://www.w3.org/2000/svg" xmlns:xlink="http://www.w3.org/1999/xlink" xml:space="preserve" xmlns:serif="http://www.serif.com/" style="fill-rule:evenodd;clip-rule:evenodd;stroke-linejoin:round;stroke-miterlimit:2;">
    <g transform="matrix(0.07446,0,0,0.0705,-3.431,-18.406)">
        <path d="M767.283,1276.63L767.291,1276.63C767.776,1276.4 767.612,1277.7 767.747,1278.15C767.593,1277.64 767.438,1277.14 767.283,1276.63ZM767.283,1276.63C762.782,1278.79 772.376,1289.82 773.032,1293.84C775.213,1307.24 770.734,1316.82 766.403,1322.84C760.561,1330.95 750.462,1340.46 731.873,1333.91C716.647,1328.31 697.341,1315.29 677.752,1297.55C645.089,1267.98 609.957,1225.66 587.017,1205.64C558.876,1179.92 529.827,1155.22 499.923,1131.57C470.21,1108.07 439.936,1085.55 408.04,1064.58C401.311,1060.77 398.608,1051.57 402.007,1044.03C405.405,1036.5 413.627,1033.47 420.356,1037.27C455.295,1054.03 488.926,1072.25 521.764,1092.25C554.939,1112.45 586.853,1134.44 618.429,1157.45C635.329,1170.38 659.147,1193.26 683.521,1215.59C679.812,1204.52 676.102,1193.43 672.489,1182.3C654.8,1124.95 643.92,1064.08 627.546,1005.44C620.783,981.218 613.354,957.468 603.558,934.63C599.87,927.267 602.215,917.936 608.789,913.807C615.364,909.678 623.695,912.303 627.382,919.666C640.522,942.402 651.501,966.339 661.382,991.106C661.859,992.302 662.333,993.499 662.804,994.697C664.998,988.033 671.14,983.774 677.656,984.876C688.875,986.2 700.13,987.534 711.413,988.779C710.298,973.139 711.068,957.299 713.996,941.661C729.342,866.623 791.92,818.124 859.521,807.448C915.304,798.638 972.469,815.937 1007.36,857.136C1020.32,815.045 1046.14,781.038 1083.85,765.882C1112.69,754.287 1149.23,753.116 1192.93,770.287C1178.24,738.55 1170.18,714.432 1171.22,704.63C1171.22,696.188 1177.34,689.334 1184.88,689.334C1192.41,689.334 1198.53,696.188 1198.53,704.63C1198.79,706.808 1201.39,709.119 1203.76,713.138C1211.26,725.855 1225.03,742.907 1241.81,763.972C1249.18,773.226 1257.18,782.939 1265.54,793.12L1265.9,792.771C1277.55,781.482 1289.05,770.606 1299.11,757.279C1311.22,741.246 1322.38,724.264 1330.54,702.432C1332.43,694.259 1339.88,689.338 1347.18,691.45C1354.48,693.563 1358.88,701.913 1356.99,710.086C1353.54,744.287 1344.06,772.795 1330.76,799.145C1323.15,814.211 1314.04,827.88 1303.94,840.871C1308.73,847.024 1313.47,853.291 1318.06,859.717C1323.21,866.934 1328.25,874.245 1333.19,881.572C1329.54,862.693 1329.16,842.959 1331.97,823.491C1342.35,751.726 1395.82,683.076 1483.64,689.334C1489.21,689.334 1494.01,693.074 1496.13,698.431C1496.87,698.431 1497.61,698.499 1498.36,698.638C1504.52,699.335 1510.6,700.635 1516.51,702.517C1505.26,679.536 1498.38,658.774 1497.07,641.835C1493.37,641.788 1489.69,640.066 1487.04,636.731C1482.01,630.434 1482.5,620.757 1488.12,615.134C1522.96,577.436 1584.95,562.557 1638.25,567.732C1686.32,572.4 1725.96,595.893 1739.94,627.54C1748.66,647.284 1746.79,672.263 1737.58,698.586C1732.33,713.6 1724.41,729.227 1715.8,744.197C1730.07,737.272 1742.43,732.209 1750.23,730.406C1790.53,721.685 1834.58,723.167 1879.19,727.211C1918.66,730.788 1958.55,736.328 1996.54,734.56C2027.79,733.105 2057.73,727.393 2084.46,710.066C2128.56,681.863 2140.05,637.172 2126.35,598.646C2112.08,558.547 2074.24,525.771 2022.4,521.371C2014.87,521.054 2008.98,513.948 2009.27,505.512C2009.55,497.076 2015.89,490.485 2023.43,490.802C2090.17,490.765 2140.21,531.276 2161.8,581.138C2186.51,638.211 2174.86,708.577 2110.21,756.773C2077.32,780.976 2039.87,791.844 2000.19,795.92C1959.9,800.058 1917.21,796.974 1875.14,794.42C1835.98,792.042 1797.4,789.781 1762.17,797.817C1749.21,800.509 1721.34,814.899 1695.35,829.168C1700.43,834.827 1705.47,840.413 1710.44,845.868C1745.52,884.308 1775.29,917.539 1793.09,934.165C1799.37,938.839 1801.08,948.341 1796.9,955.371C1792.73,962.4 1784.25,964.312 1777.97,959.638C1763.14,951.182 1740.51,937.168 1713.86,918.34C1694.84,904.898 1674.12,889.43 1653.12,871.96C1648.32,867.973 1643.57,863.933 1638.86,859.843C1630.7,863.262 1625.41,864.341 1624.74,864.324C1618.13,864.15 1613.15,862.418 1609.36,860.087C1609.36,860.815 1609.34,861.543 1609.33,862.27C1607.55,936.598 1562.36,1003.89 1461.15,998.689C1433.92,995.256 1411.05,986.482 1392.43,973.923C1409.56,1001.41 1422.86,1023 1430.54,1033.14C1436.03,1038.93 1436.28,1048.62 1431.11,1054.76C1425.94,1060.91 1417.29,1061.19 1411.81,1055.4C1398.07,1043.85 1366.77,1014.7 1331.18,975.89C1332.72,979.447 1332.99,983.428 1331.95,987.161C1323.01,1028.41 1308.04,1077.58 1279.21,1109.8C1258.58,1132.87 1230.92,1146.62 1194.19,1146.13C1119.26,1143.39 1064.21,1103.36 1031.86,1049.58C1020.61,1030.87 1012.16,1010.42 1006.48,989.401C1002.97,992.358 999.299,995.118 995.484,997.67C949.049,1028.82 864.09,1040.62 830.39,1039.77C811.877,1039.21 793.435,1037.54 775.042,1034.98C786.99,1066.27 809.37,1093.08 835.912,1107.37C879.943,1131.09 934.618,1119.17 978.134,1041.59C981.871,1034.26 990.22,1031.7 996.767,1035.88C1003.31,1040.07 1005.59,1049.42 1001.86,1056.75C952.485,1163.86 878.206,1178.77 818.355,1152.51C770.557,1131.54 731.945,1081.71 717.284,1024.63C702.656,1021.58 688.09,1018.33 673.579,1015.12C672.366,1014.92 671.214,1014.54 670.141,1014.01C687.992,1062.55 702.563,1112.77 722.266,1159.62C731.601,1182.75 741.595,1205.49 750.62,1228.7C756.754,1244.47 762.312,1260.46 767.283,1276.63ZM1215.51,815.162C1105.93,770.726 1054.41,835.182 1055.93,914.693C1056.56,947.483 1065.98,981.676 1083.25,1011.58C1106.2,1051.32 1143.14,1083.9 1197.57,1090.16C1226.33,1094.19 1247.36,1082.3 1263.16,1063.15C1283.08,1039 1296.23,1006.31 1305.87,978.074C1308.11,970.013 1315.77,965.505 1322.97,968.012C1323.56,968.218 1324.13,968.465 1324.68,968.749C1324.24,968.266 1323.81,967.782 1323.37,967.297C1305.71,947.676 1287.21,926.257 1270.24,903.36C1266.31,898.064 1262.53,892.655 1258.86,887.19C1251.37,893.275 1243.65,899.1 1235.84,904.893C1223.36,914.159 1210.64,922.716 1197.91,932.027C1179.5,945.502 1161.36,958.59 1144.51,975.757C1139.72,982.281 1131.11,983.227 1125.28,977.87C1119.46,972.512 1118.61,962.866 1123.4,956.342C1140.75,924.564 1161.01,897.509 1183.68,872.397C1196.86,857.798 1210.33,843.963 1224.16,830.827C1221.22,825.637 1218.34,820.415 1215.51,815.162ZM1523.82,625.293C1524.24,626.758 1524.46,628.319 1524.46,629.938C1526.32,647.821 1543.02,668.145 1564.51,692.807C1577.7,707.959 1593.34,723.297 1609.72,739.864C1618.1,748.336 1626.8,756.843 1635.53,765.512C1649.02,746.382 1671.69,718.069 1686.51,689.775C1691.78,679.714 1696.32,669.931 1698.01,660.556C1698.79,656.276 1699.6,652.226 1698.28,648.615C1694.62,638.627 1685.73,630.912 1674.4,624.767C1656.99,615.323 1634.61,609.572 1611.23,608.195C1580.81,606.404 1548.7,611.196 1523.82,625.293ZM709.42,1298.94C705.473,1307.75 704.968,1314.14 713.562,1310.16C716.901,1308.62 710.593,1301.98 709.42,1298.94ZM765.969,993.687C767.213,993.764 768.458,993.839 769.704,993.91C789.758,995.059 809.781,995.309 829.795,994.055C850.961,992.786 895.047,983.773 932.43,967.755C948.52,960.86 963.198,952.535 973.439,942.504C979.079,936.98 982.689,930.69 979.32,922.777C961.53,879.693 912.981,868.586 868.166,875.739C824.229,882.752 780.463,908.323 769.247,956.766C766.208,968.961 765.217,981.398 765.969,993.687ZM1483.65,719.925C1419.52,724.495 1385.5,776.973 1382.33,829.937C1379.43,878.223 1405.97,926.343 1466.21,929.879C1525.96,937.853 1555.43,901.884 1560.39,858.072C1566.47,804.318 1543.07,741.524 1493.91,728.819C1489.2,727.947 1485.45,724.471 1483.65,719.925ZM195.308,673.673C191.14,677.742 184.991,678.721 179.841,675.609C173.207,671.602 170.726,662.316 174.305,654.886C211.032,568.523 261.625,559.563 297.241,581.671C313.344,591.666 327.313,609.675 337.086,632.901C338.359,630.619 339.663,628.353 340.996,626.105C347.556,615.061 355.027,604.585 363.331,594.785C388.872,565.188 429.569,553.869 469.871,559.325C476.564,560.238 483.189,561.594 489.703,563.384C491.587,557.857 496.262,553.821 501.872,553.546C511.324,552.563 530.082,552.056 553.638,551.096C551.677,538.549 551.275,526.488 552.53,515.398C559.882,457.758 602.02,412.214 652.817,396.479C690.5,384.807 732.141,389.588 765.857,414.609C755.239,398.24 745.375,381.558 735.998,364.132C731.467,357.385 732.68,347.788 738.704,342.714C744.728,337.64 753.298,338.998 757.829,345.745C792.266,388.372 832.065,423.581 869.156,463.208C869.891,463.992 870.621,464.78 871.349,465.57C880.442,456.619 889.689,447.95 898.892,439.434C915.311,424.241 931.688,410.259 945.591,393.398C959.535,376.487 972.176,359.287 980.531,337.376C982.481,329.221 989.976,324.374 997.258,326.558C1004.54,328.742 1008.87,337.136 1006.92,345.29C1003.32,378.058 992.771,406.718 977.937,434.105C968.449,451.62 956.919,467.712 944.162,483.276C936.968,492.054 929.378,500.559 921.19,508.429C918.579,510.936 915.926,513.397 913.23,515.812C920.195,524.618 927.107,533.474 933.738,542.598C945.607,558.927 956.783,575.81 967.886,592.798C984.606,618.377 1000.59,644.209 1016.55,670.371C1032.57,696.637 1047.8,722.928 1063.47,749.418C1068.23,755.964 1067.35,765.606 1061.5,770.937C1055.66,776.267 1047.05,775.279 1042.29,768.733C1022.33,746.209 1002.4,724.273 982.571,701.555C962.85,678.956 943.335,656.492 924.089,633.361C911.323,618.016 898.61,602.669 886.459,586.707C878.726,576.548 871.341,566.072 863.959,555.592C858.238,559.944 852.537,564.289 846.895,568.762C831.154,581.241 816.003,593.187 802.495,607.26C803.418,607.363 804.345,607.574 805.264,607.9C812.451,610.444 816.442,619.045 814.17,627.094C792.373,720.068 741.527,737.584 692.166,722.8C650.869,710.432 608.641,670.404 581.533,625.371C574.244,613.264 568.219,600.741 563.543,588.233C554.708,587.611 546.428,586.973 538.903,586.391C549.586,593.87 558.951,602.52 566.377,611.961C596.537,652.15 612.504,716.685 604.822,776.688C597.214,836.113 568.717,890.427 515.041,911.188C495.481,918.621 474.092,921.477 452.088,921.223C422.558,920.882 392.196,915.639 365.116,913.141C357.582,912.87 351.662,905.799 351.904,897.362C352.146,888.925 358.459,882.295 365.993,882.566C392.371,882.037 422.15,883.806 450.715,881.023C468.144,879.325 484.953,875.639 499.939,868.119C535.262,850.649 550.17,811.163 552.753,770.444C555.43,728.243 543.915,683.508 521.41,656.912C508.448,640.863 485.326,630.928 462.243,627.582C441.041,624.509 418.858,626.122 404.998,641.251C396.928,649.869 389.984,659.267 383.799,669.199C376.959,680.183 370.842,691.621 365.093,703.249C359.558,714.303 353.433,730.176 350.663,737.365C350.521,737.732 350.378,738.09 350.232,738.441C364.566,750.151 378.221,762.794 392.164,775.259C416.539,797.051 439.439,819.554 464.844,840.621C471.459,844.668 473.895,853.969 470.281,861.377C466.666,868.785 458.361,871.513 451.747,867.466C421.306,854.525 392.051,841.648 363.391,825.393C344.371,814.606 325.717,803.279 308.253,789.753C290.83,776.259 274.82,760.816 259.124,744.928C236.62,722.148 216.504,697.92 195.308,673.673ZM302.419,703.969C304.732,666.835 294.734,634.344 276.085,620.063C257.912,606.147 235.354,613.439 211.709,647.467C238.279,664.086 264.685,679.109 290.937,696.393C294.769,698.916 298.599,701.436 302.419,703.969ZM815.72,485.962C819.724,500.528 819.476,513.306 816.495,524.19C815.939,526.219 815.283,528.22 814.53,530.184C820.044,522.898 825.79,515.716 831.732,508.602C826.447,501 821.095,493.468 815.72,485.962ZM795.377,557.49C785.668,566.226 773.004,573.436 757.518,578.382C723.149,589.36 674.148,592.335 627.272,591.348C626.155,591.324 625.039,591.299 623.922,591.271C627.444,598.397 631.437,605.471 635.757,612.343C654.212,641.703 678.734,668.012 704.652,678.73C736.113,691.739 766.985,678.628 787.01,621.152C783.401,621.982 779.504,621.185 776.281,618.587C770.163,613.655 768.771,604.089 773.174,597.238C779.693,583.452 787.149,570.26 795.377,557.49ZM609.455,548.035C643.638,545.518 680.187,541.355 710.985,533.878C727.338,529.908 741.8,524.913 752.867,518.445C757.97,515.462 762.166,512.588 763.653,508.176C764.283,506.306 762.343,504.699 761.246,502.204C758.814,496.674 754.611,490.95 749.144,484.378C727.97,458.144 696.624,454.671 669.208,463.099C640.75,471.847 614.523,493.506 609.432,525.606C608.219,532.575 608.306,540.132 609.455,548.035ZM1099.94,332.383C1101.41,327.76 1104.84,324.009 1109.4,322.692C1187.27,294.418 1249.21,342.154 1275.41,405.061C1304.59,475.142 1287.61,564.104 1208.12,606.722C1175.5,622.213 1143.82,626.953 1115.19,622.444C1063.38,614.285 1020.96,579.053 1000.56,532.974C971.051,466.355 982.597,375.159 1079.62,321.302C1086.16,317.1 1094.51,319.633 1098.27,326.955C1099.13,328.655 1099.7,330.491 1099.94,332.383ZM1099.29,339.681C1098.24,343.006 1096.16,345.942 1093.22,347.834C1027.79,396.031 1019.88,459.364 1045.43,504.895C1056.05,523.819 1072.78,538.421 1092.55,547.55C1118.5,559.533 1150.38,560.378 1183.74,543.595C1233.08,522.152 1244.4,469.293 1230.68,425.464C1215.8,377.921 1174.55,339.646 1116.22,352.313C1108.92,354.422 1101.47,349.498 1099.58,341.324C1099.46,340.781 1099.36,340.233 1099.29,339.681ZM715.573,1616.46C712.937,1624.37 705.063,1628.39 698.001,1625.44C690.939,1622.49 687.346,1613.67 689.982,1605.76C722.866,1495.85 788.81,1399.47 874.802,1324.84C956.346,1254.06 1055.98,1203.86 1160.55,1177.76C1190.45,1170.87 1220.65,1165.39 1251.05,1161.23C1319.52,1151.87 1388.71,1147.62 1456.07,1132.92C1484.26,1127.1 1511.95,1119.55 1539.37,1111.04C1581.48,1097.97 1622.87,1082.74 1664.08,1067.28C1708.99,1050.66 1753.04,1033.14 1793.37,1009.19C1820.27,993.216 1845.54,974.614 1868.12,951.253C1873.47,945.307 1882.13,945.346 1887.44,951.338C1892.75,957.331 1892.71,967.024 1887.36,972.969C1864.5,1000.25 1838.48,1022.74 1810.38,1042.31C1769.84,1070.55 1724.94,1092.24 1679.11,1113.06C1637.94,1131.55 1596.64,1150.01 1554.38,1165.9C1525.88,1176.62 1496.97,1186.03 1467.49,1193.82C1437.74,1201.5 1407.64,1207.57 1377.29,1212.42C1309.08,1223.33 1239.9,1229.08 1172.54,1244.58C1074.91,1264.17 981.768,1307.49 903.183,1368.26C819.755,1432.78 752.358,1516.6 715.573,1616.46ZM1581.81,469.056C1579.49,467.608 1577.63,464.906 1575.59,461.941C1573.22,458.504 1572.09,451.889 1571.36,449.532C1566.04,432.394 1568.57,418.461 1572.78,406.859C1583.01,378.627 1616.61,366.79 1651.67,372.06C1675.14,375.587 1698.45,389.167 1714.03,408.342C1726.62,423.844 1733.64,443.765 1733.97,465.768C1731.4,511.431 1706.04,535.281 1670.33,533.904C1635.2,532.55 1592.95,507.46 1583.25,475.586C1582.31,473.486 1581.85,471.259 1581.81,469.056ZM1600.35,445.783C1599.48,445.064 1598.3,444.272 1597.19,443.556C1598.34,444.506 1599.32,445.637 1600.13,446.897C1600.17,446.559 1600.25,446.174 1600.35,445.783ZM1600.13,446.897C1600.05,447.61 1600.17,448.114 1600.76,448.025L1600.79,448.022C1600.58,447.637 1600.36,447.261 1600.13,446.897ZM1600.79,448.022C1602.02,450.351 1602.69,453.028 1602.71,455.769C1604.77,457.207 1606.51,459.279 1607.67,461.885C1614.65,473.142 1630.55,477.264 1645.99,479.313C1652.39,480.163 1658.67,479.305 1664.62,478.281C1669.1,477.509 1678,474.9 1675.32,471.865C1675.05,471.562 1674,470.97 1674.39,471.101C1675.33,471.415 1673.73,468.964 1673.61,467.605C1673.45,457.734 1667.35,450.531 1660.54,444.547C1650.64,435.844 1639,428.448 1627.37,426.617C1614.11,424.529 1600.21,425.567 1600.95,443.334C1600.96,443.737 1600.6,444.781 1600.35,445.783C1601.66,446.872 1602.25,447.793 1600.79,448.022ZM177.212,1072.9C176.715,1071.28 176.463,1069.6 176.466,1067.9C170.365,1017.25 208.125,990.801 248.705,987.42C271.698,985.504 295.388,994.416 313.429,1009.73C327.251,1021.46 336.583,1038.5 341.429,1058.57C349.353,1111.88 323.22,1144.46 282.729,1150.65C270.293,1152.56 256.82,1152.5 243.586,1148.89C212.692,1140.46 183.533,1120.25 174.918,1089.77C172.481,1083.98 173.572,1077.34 177.212,1072.9ZM200.392,1077.98C209.684,1092.48 228.442,1096.45 246.376,1097.04C256.658,1097.38 266.48,1094.35 274.903,1090.35C280.591,1087.65 283.454,1082.09 281.361,1073.98C279.542,1062.03 271.583,1053.81 262.055,1049.18C253.393,1044.98 244.274,1041.35 235.242,1041.96C220.534,1042.95 206.12,1048.93 203.781,1067.9C203.781,1071.76 202.502,1075.29 200.392,1077.98Z" style="fill:rgb(125,42,174);"/>
    </g>
</svg>
