<svg xmlns="http://www.w3.org/2000/svg" viewBox="0 0 168 100" xml:space="preserve" style="fill-rule:evenodd;clip-rule:evenodd;stroke-linejoin:round;stroke-miterlimit:2">
  <path d="M767.283 1276.63h.008c.485-.23.321 1.07.456 1.52-.154-.51-.309-1.01-.464-1.52Zm0 0c-4.501 2.16 5.093 13.19 5.749 17.21 2.181 13.4-2.298 22.98-6.629 29-5.842 8.11-15.941 17.62-34.53 11.07-15.226-5.6-34.532-18.62-54.121-36.36-32.663-29.57-67.795-71.89-90.735-91.91a1601.633 1601.633 0 0 0-87.094-74.07c-29.713-23.5-59.987-46.02-91.883-66.99-6.729-3.81-9.432-13.01-6.033-20.55 3.398-7.53 11.62-10.56 18.349-6.76 34.939 16.76 68.57 34.98 101.408 54.98 33.175 20.2 65.089 42.19 96.665 65.2 16.9 12.93 40.718 35.81 65.092 58.14-3.709-11.07-7.419-22.16-11.032-33.29-17.689-57.35-28.569-118.22-44.943-176.86-6.763-24.222-14.192-47.972-23.988-70.81-3.688-7.363-1.343-16.694 5.231-20.823 6.575-4.129 14.906-1.504 18.593 5.859 13.14 22.736 24.119 46.673 34 71.44.477 1.196.951 2.393 1.422 3.591 2.194-6.664 8.336-10.923 14.852-9.821 11.219 1.324 22.474 2.658 33.757 3.903-1.115-15.64-.345-31.48 2.583-47.118 15.346-75.038 77.924-123.537 145.525-134.213 55.783-8.81 112.948 8.489 147.839 49.688 12.96-42.091 38.78-76.098 76.49-91.254 28.84-11.595 65.38-12.766 109.08 4.405-14.69-31.737-22.75-55.855-21.71-65.657 0-8.442 6.12-15.296 13.66-15.296 7.53 0 13.65 6.854 13.65 15.296.26 2.178 2.86 4.489 5.23 8.508 7.5 12.717 21.27 29.769 38.05 50.834 7.37 9.254 15.37 18.967 23.73 29.148l.36-.349c11.65-11.289 23.15-22.165 33.21-35.492 12.11-16.033 23.27-33.015 31.43-54.847 1.89-8.173 9.34-13.094 16.64-10.982 7.3 2.113 11.7 10.463 9.81 18.636-3.45 34.201-12.93 62.709-26.23 89.059-7.61 15.066-16.72 28.735-26.82 41.726 4.79 6.153 9.53 12.42 14.12 18.846 5.15 7.217 10.19 14.528 15.13 21.855-3.65-18.879-4.03-38.613-1.22-58.081 10.38-71.765 63.85-140.415 151.67-134.157 5.57 0 10.37 3.74 12.49 9.097.74 0 1.48.068 2.23.207a94.986 94.986 0 0 1 18.15 3.879c-11.25-22.981-18.13-43.743-19.44-60.682-3.7-.047-7.38-1.769-10.03-5.104-5.03-6.297-4.54-15.974 1.08-21.597 34.84-37.698 96.83-52.577 150.13-47.402 48.07 4.668 87.71 28.161 101.69 59.808 8.72 19.744 6.85 44.723-2.36 71.046-5.25 15.014-13.17 30.641-21.78 45.611 14.27-6.925 26.63-11.988 34.43-13.791 40.3-8.721 84.35-7.239 128.96-3.195 39.47 3.577 79.36 9.117 117.35 7.349 31.25-1.455 61.19-7.167 87.92-24.494 44.1-28.203 55.59-72.894 41.89-111.42-14.27-40.099-52.11-72.875-103.95-77.275-7.53-.317-13.42-7.423-13.13-15.859.28-8.436 6.62-15.027 14.16-14.71 66.74-.037 116.78 40.474 138.37 90.336 24.71 57.073 13.06 127.439-51.59 175.635-32.89 24.203-70.34 35.071-110.02 39.147-40.29 4.138-82.98 1.054-125.05-1.5-39.16-2.378-77.74-4.639-112.97 3.397-12.96 2.692-40.83 17.082-66.82 31.351 5.08 5.659 10.12 11.245 15.09 16.7 35.08 38.44 64.85 71.671 82.65 88.297 6.28 4.674 7.99 14.176 3.81 21.206-4.17 7.029-12.65 8.941-18.93 4.267-14.83-8.456-37.46-22.47-64.11-41.298-19.02-13.442-39.74-28.91-60.74-46.38a862.96 862.96 0 0 1-14.26-12.117c-8.16 3.419-13.45 4.498-14.12 4.481-6.61-.174-11.59-1.906-15.38-4.237 0 .728-.02 1.456-.03 2.183-1.78 74.328-46.97 141.62-148.18 136.419-27.23-3.433-50.1-12.207-68.72-24.766 17.13 27.487 30.43 49.077 38.11 59.217 5.49 5.79 5.74 15.48.57 21.62-5.17 6.15-13.82 6.43-19.3.64-13.74-11.55-45.04-40.7-80.63-79.51a16.918 16.918 0 0 1 .77 11.271c-8.94 41.249-23.91 90.419-52.74 122.639-20.63 23.07-48.29 36.82-85.02 36.33-74.93-2.74-129.98-42.77-162.33-96.55-11.25-18.71-19.7-39.16-25.38-60.179a124.49 124.49 0 0 1-10.996 8.269c-46.435 31.15-131.394 42.95-165.094 42.1-18.513-.56-36.955-2.23-55.348-4.79 11.948 31.29 34.328 58.1 60.87 72.39 44.031 23.72 98.706 11.8 142.222-65.78 3.737-7.33 12.086-9.89 18.633-5.71 6.543 4.19 8.823 13.54 5.093 20.87-49.375 107.11-123.654 122.02-183.505 95.76-47.798-20.97-86.41-70.8-101.071-127.88-14.628-3.05-29.194-6.3-43.705-9.51-1.213-.2-2.365-.58-3.438-1.11 17.851 48.54 32.422 98.76 52.125 145.61 9.335 23.13 19.329 45.87 28.354 69.08a697.41 697.41 0 0 1 16.663 47.93Zm448.227-461.468c-109.58-44.436-161.1 20.02-159.58 99.531.63 32.79 10.05 66.983 27.32 96.887 22.95 39.74 59.89 72.32 114.32 78.58 28.76 4.03 49.79-7.86 65.59-27.01 19.92-24.15 33.07-56.84 42.71-85.076 2.24-8.061 9.9-12.569 17.1-10.062.59.206 1.16.453 1.71.737-.44-.483-.87-.967-1.31-1.452-17.66-19.621-36.16-41.04-53.13-63.937-3.93-5.296-7.71-10.705-11.38-16.17-7.49 6.085-15.21 11.91-23.02 17.703-12.48 9.266-25.2 17.823-37.93 27.134-18.41 13.475-36.55 26.563-53.4 43.73-4.79 6.524-13.4 7.47-19.23 2.113-5.82-5.358-6.67-15.004-1.88-21.528 17.35-31.778 37.61-58.833 60.28-83.945 13.18-14.599 26.65-28.434 40.48-41.57a825.681 825.681 0 0 1-8.65-15.665Zm308.31-189.869c.42 1.465.64 3.026.64 4.645 1.86 17.883 18.56 38.207 40.05 62.869 13.19 15.152 28.83 30.49 45.21 47.057 8.38 8.472 17.08 16.979 25.81 25.648 13.49-19.13 36.16-47.443 50.98-75.737 5.27-10.061 9.81-19.844 11.5-29.219.78-4.28 1.59-8.33.27-11.941-3.66-9.988-12.55-17.703-23.88-23.848-17.41-9.444-39.79-15.195-63.17-16.572-30.42-1.791-62.53 3.001-87.41 17.098Zm-814.4 673.647c-3.947 8.81-4.452 15.2 4.142 11.22 3.339-1.54-2.969-8.18-4.142-11.22Zm56.549-305.253c1.244.077 2.489.152 3.735.223 20.054 1.149 40.077 1.399 60.091.145 21.166-1.269 65.252-10.282 102.635-26.3 16.09-6.895 30.768-15.22 41.009-25.251 5.64-5.524 9.25-11.814 5.881-19.727-17.79-43.084-66.339-54.191-111.154-47.038-43.937 7.013-87.703 32.584-98.919 81.027-3.039 12.195-4.03 24.632-3.278 36.921Zm717.681-273.762c-64.13 4.57-98.15 57.048-101.32 110.012-2.9 48.286 23.64 96.406 83.88 99.942 59.75 7.974 89.22-27.995 94.18-71.807 6.08-53.754-17.32-116.548-66.48-129.253-4.71-.872-8.46-4.348-10.26-8.894ZM195.308 673.673c-4.168 4.069-10.317 5.048-15.467 1.936-6.634-4.007-9.115-13.293-5.536-20.723 36.727-86.363 87.32-95.323 122.936-73.215 16.103 9.995 30.072 28.004 39.845 51.23a297.15 297.15 0 0 1 3.91-6.796 230.575 230.575 0 0 1 22.335-31.32c25.541-29.597 66.238-40.916 106.54-35.46a152.657 152.657 0 0 1 19.832 4.059c1.884-5.527 6.559-9.563 12.169-9.838 9.452-.983 28.21-1.49 51.766-2.45-1.961-12.547-2.363-24.608-1.108-35.698 7.352-57.64 49.49-103.184 100.287-118.919 37.683-11.672 79.324-6.891 113.04 18.13-10.618-16.369-20.482-33.051-29.859-50.477-4.531-6.747-3.318-16.344 2.706-21.418 6.024-5.074 14.594-3.716 19.125 3.031 34.437 42.627 74.236 77.836 111.327 117.463.735.784 1.465 1.572 2.193 2.362 9.093-8.951 18.34-17.62 27.543-26.136 16.419-15.193 32.796-29.175 46.699-46.036 13.944-16.911 26.585-34.111 34.94-56.022 1.95-8.155 9.445-13.002 16.727-10.818 7.282 2.184 11.612 10.578 9.662 18.732-3.6 32.768-14.149 61.428-28.983 88.815-9.488 17.515-21.018 33.607-33.775 49.171-7.194 8.778-14.784 17.283-22.972 25.153a314.744 314.744 0 0 1-7.96 7.383c6.965 8.806 13.877 17.662 20.508 26.786 11.869 16.329 23.045 33.212 34.148 50.2 16.72 25.579 32.704 51.411 48.664 77.573 16.02 26.266 31.25 52.557 46.92 79.047 4.76 6.546 3.88 16.188-1.97 21.519-5.84 5.33-14.45 4.342-19.21-2.204-19.96-22.524-39.89-44.46-59.719-67.178-19.721-22.599-39.236-45.063-58.482-68.194-12.766-15.345-25.479-30.692-37.63-46.654-7.733-10.159-15.118-20.635-22.5-31.115-5.721 4.352-11.422 8.697-17.064 13.17-15.741 12.479-30.892 24.425-44.4 38.498.923.103 1.85.314 2.769.64 7.187 2.544 11.178 11.145 8.906 19.194-21.797 92.974-72.643 110.49-122.004 95.706-41.297-12.368-83.525-52.396-110.633-97.429-7.289-12.107-13.314-24.63-17.99-37.138-8.835-.622-17.115-1.26-24.64-1.842 10.683 7.479 20.048 16.129 27.474 25.57 30.16 40.189 46.127 104.724 38.445 164.727-7.608 59.425-36.105 113.739-89.781 134.5-19.56 7.433-40.949 10.289-62.953 10.035-29.53-.341-59.892-5.584-86.972-8.082-7.534-.271-13.454-7.342-13.212-15.779.242-8.437 6.555-15.067 14.089-14.796 26.378-.529 56.157 1.24 84.722-1.543 17.429-1.698 34.238-5.384 49.224-12.904 35.323-17.47 50.231-56.956 52.814-97.675 2.677-42.201-8.838-86.936-31.343-113.532-12.962-16.049-36.084-25.984-59.167-29.33-21.202-3.073-43.385-1.46-57.245 13.669-8.07 8.618-15.014 18.016-21.199 27.948-6.84 10.984-12.957 22.422-18.706 34.05-5.535 11.054-11.66 26.927-14.43 34.116-.142.367-.285.725-.431 1.076 14.334 11.71 27.989 24.353 41.932 36.818 24.375 21.792 47.275 44.295 72.68 65.362 6.615 4.047 9.051 13.348 5.437 20.756-3.615 7.408-11.92 10.136-18.534 6.089-30.441-12.941-59.696-25.818-88.356-42.073-19.02-10.787-37.674-22.114-55.138-35.64-17.423-13.494-33.433-28.937-49.129-44.825-22.504-22.78-42.62-47.008-63.816-71.255Zm107.111 30.296c2.313-37.134-7.685-69.625-26.334-83.906-18.173-13.916-40.731-6.624-64.376 27.404 26.57 16.619 52.976 31.642 79.228 48.926 3.832 2.523 7.662 5.043 11.482 7.576ZM815.72 485.962c4.004 14.566 3.756 27.344.775 38.228a63.854 63.854 0 0 1-1.965 5.994c5.514-7.286 11.26-14.468 17.202-21.582-5.285-7.602-10.637-15.134-16.012-22.64Zm-20.343 71.528c-9.709 8.736-22.373 15.946-37.859 20.892-34.369 10.978-83.37 13.953-130.246 12.966a920.089 920.089 0 0 1-3.35-.077c3.522 7.126 7.515 14.2 11.835 21.072 18.455 29.36 42.977 55.669 68.895 66.387 31.461 13.009 62.333-.102 82.358-57.578-3.609.83-7.506.033-10.729-2.565-6.118-4.932-7.51-14.498-3.107-21.349 6.519-13.786 13.975-26.978 22.203-39.748Zm-185.922-9.455c34.183-2.517 70.732-6.68 101.53-14.157 16.353-3.97 30.815-8.965 41.882-15.433 5.103-2.983 9.299-5.857 10.786-10.269.63-1.87-1.31-3.477-2.407-5.972-2.432-5.53-6.635-11.254-12.102-17.826-21.174-26.234-52.52-29.707-79.936-21.279-28.458 8.748-54.685 30.407-59.776 62.507-1.213 6.969-1.126 14.526.023 22.429Zm490.485-215.652c1.47-4.623 4.9-8.374 9.46-9.691 77.87-28.274 139.81 19.462 166.01 82.369 29.18 70.081 12.2 159.043-67.29 201.661-32.62 15.491-64.3 20.231-92.93 15.722-51.81-8.159-94.23-43.391-114.63-89.47-29.509-66.619-17.963-157.815 79.06-211.672 6.54-4.202 14.89-1.669 18.65 5.653a16.64 16.64 0 0 1 1.67 5.428Zm-.65 7.298c-1.05 3.325-3.13 6.261-6.07 8.153-65.43 48.197-73.34 111.53-47.79 157.061 10.62 18.924 27.35 33.526 47.12 42.655 25.95 11.983 57.83 12.828 91.19-3.955 49.34-21.443 60.66-74.302 46.94-118.131-14.88-47.543-56.13-85.818-114.46-73.151-7.3 2.109-14.75-2.815-16.64-10.989a18.92 18.92 0 0 1-.29-1.643ZM715.573 1616.46c-2.636 7.91-10.51 11.93-17.572 8.98-7.062-2.95-10.655-11.77-8.019-19.68 32.884-109.91 98.828-206.29 184.82-280.92 81.544-70.78 181.178-120.98 285.748-147.08 29.9-6.89 60.1-12.37 90.5-16.53 68.47-9.36 137.66-13.61 205.02-28.31 28.19-5.82 55.88-13.37 83.3-21.88 42.11-13.07 83.5-28.3 124.71-43.76 44.91-16.62 88.96-34.14 129.29-58.09 26.9-15.974 52.17-34.576 74.75-57.937 5.35-5.946 14.01-5.907 19.32.085 5.31 5.993 5.27 15.686-.08 21.631-22.86 27.281-48.88 49.771-76.98 69.341-40.54 28.24-85.44 49.93-131.27 70.75-41.17 18.49-82.47 36.95-124.73 52.84-28.5 10.72-57.41 20.13-86.89 27.92-29.75 7.68-59.85 13.75-90.2 18.6-68.21 10.91-137.39 16.66-204.75 32.16-97.63 19.59-190.772 62.91-269.357 123.68-83.428 64.52-150.825 148.34-187.61 248.2ZM1581.81 469.056c-2.32-1.448-4.18-4.15-6.22-7.115-2.37-3.437-3.5-10.052-4.23-12.409-5.32-17.138-2.79-31.071 1.42-42.673 10.23-28.232 43.83-40.069 78.89-34.799 23.47 3.527 46.78 17.107 62.36 36.282 12.59 15.502 19.61 35.423 19.94 57.426-2.57 45.663-27.93 69.513-63.64 68.136-35.13-1.354-77.38-26.444-87.08-58.318-.94-2.1-1.4-4.327-1.44-6.53Zm18.54-23.273c-.87-.719-2.05-1.511-3.16-2.227 1.15.95 2.13 2.081 2.94 3.341.04-.338.12-.723.22-1.114Zm-.22 1.114c-.08.713.04 1.217.63 1.128l.03-.003c-.21-.385-.43-.761-.66-1.125Zm.66 1.125c1.23 2.329 1.9 5.006 1.92 7.747 2.06 1.438 3.8 3.51 4.96 6.116 6.98 11.257 22.88 15.379 38.32 17.428 6.4.85 12.68-.008 18.63-1.032 4.48-.772 13.38-3.381 10.7-6.416-.27-.303-1.32-.895-.93-.764.94.314-.66-2.137-.78-3.496-.16-9.871-6.26-17.074-13.07-23.058-9.9-8.703-21.54-16.099-33.17-17.93-13.26-2.088-27.16-1.05-26.42 16.717.01.403-.35 1.447-.6 2.449 1.31 1.089 1.9 2.01.44 2.239ZM177.212 1072.9a16.95 16.95 0 0 1-.746-5c-6.101-50.65 31.659-77.099 72.239-80.48 22.993-1.916 46.683 6.996 64.724 22.31 13.822 11.73 23.154 28.77 28 48.84 7.924 53.31-18.209 85.89-58.7 92.08-12.436 1.91-25.909 1.85-39.143-1.76-30.894-8.43-60.053-28.64-68.668-59.12-2.437-5.79-1.346-12.43 2.294-16.87Zm23.18 5.08c9.292 14.5 28.05 18.47 45.984 19.06 10.282.34 20.104-2.69 28.527-6.69 5.688-2.7 8.551-8.26 6.458-16.37-1.819-11.95-9.778-20.17-19.306-24.8-8.662-4.2-17.781-7.83-26.813-7.22-14.708.99-29.122 6.97-31.461 25.94 0 3.86-1.279 7.39-3.389 10.08Z" style="fill:#8ac1c0" transform="matrix(.07446 0 0 .0705 -3.431 -18.406)"/>
</svg>
