<svg xmlns="http://www.w3.org/2000/svg" viewBox="0 0 24 24" xml:space="preserve" style="fill-rule:evenodd;clip-rule:evenodd;stroke-linejoin:round;stroke-miterlimit:2">
  <path d="M19.931 0A4.07 4.07 0 0 1 24 4.069v15.862A4.07 4.07 0 0 1 19.931 24H4.069A4.07 4.07 0 0 1 0 19.931V4.069A4.07 4.07 0 0 1 4.069 0h15.862Zm-2.644 4H6.713A2.713 2.713 0 0 0 4 6.713v10.574A2.713 2.713 0 0 0 6.713 20h10.574A2.713 2.713 0 0 0 20 17.287V6.713A2.713 2.713 0 0 0 17.287 4Z" style="fill:#8877a4"/>
  <path d="M30.5 15.901A2.1 2.1 0 0 1 28.401 18H11.494a2.497 2.497 0 0 1-1.764-.73A2.497 2.497 0 0 1 9 15.506V6.292C9 5.578 9.578 5 10.292 5h3.416A1.294 1.294 0 0 1 15 6.292v4.45c0 .334.133.654.368.89.236.235.556.368.89.368h12.143a2.1 2.1 0 0 1 2.099 2.099v1.802Z" style="fill:#DA7D78" transform="rotate(-50.901 13.36 18.233)"/>
</svg>
