<?xml version="1.0" encoding="UTF-8" standalone="no"?><!DOCTYPE svg PUBLIC "-//W3C//DTD SVG 1.1//EN" "http://www.w3.org/Graphics/SVG/1.1/DTD/svg11.dtd"><svg width="100%" height="100%" viewBox="0 0 48 48" version="1.1" xmlns="http://www.w3.org/2000/svg" xmlns:xlink="http://www.w3.org/1999/xlink" xml:space="preserve" xmlns:serif="http://www.serif.com/" style="fill-rule:evenodd;clip-rule:evenodd;stroke-linejoin:round;stroke-miterlimit:2;"><circle id="BG-Ellipse" cx="24" cy="24" r="24" style="fill:#4f3681;"/><path d="M8.524,35.554l9.351,-13.476l4.563,6.397c0.159,0.24 0.428,0.385 0.717,0.385c0.288,0 0.558,-0.145 0.716,-0.385l4.557,-6.39l9.797,14.12c0.012,0.017 0.024,0.034 0.037,0.05c-0.81,0.356 -1.684,0.539 -2.568,0.538l-23.388,-0c-1.414,-0 -2.722,-0.461 -3.782,-1.239Zm30.081,-23.646c2.136,1.092 3.484,3.297 3.485,5.695l0,12.794c0,1.322 -0.402,2.551 -1.091,3.571c0,-0 -9.97,-14.331 -10.063,-14.391l7.669,-7.669Zm-30.241,0.66l7.005,7.004c-0.096,0.061 -9.086,12.977 -9.086,12.977c-0.247,-0.69 -0.374,-1.418 -0.373,-2.152l-0,-12.794c-0,-2.043 0.961,-3.864 2.454,-5.035Zm26,-1.361c0,0 -11.038,12.81 -11.07,12.86l-0.279,-0c-0.032,-0.05 -11.06,-12.85 -11.06,-12.85c0.116,-0.007 22.409,-0.01 22.409,-0.01Z" style="fill:#fff;"/></svg>
