<svg xmlns="http://www.w3.org/2000/svg" xml:space="preserve" style="fill-rule:evenodd;clip-rule:evenodd;stroke-linejoin:round;stroke-miterlimit:2" viewBox="0 0 100 90">
  <path style="fill:none" d="M0 0h103v106H0z" transform="scale(.97087 .84906)"/>
  <path d="M114 14.156C114 6.338 107.662 0 99.844 0H14.156C6.338 0 0 6.338 0 14.156v85.688C0 107.662 6.338 114 14.156 114h85.688c7.818 0 14.156-6.338 14.156-14.156V14.156Zm-12 9.02C102 17.004 96.996 12 90.824 12H23.176C17.004 12 12 17.004 12 23.176v67.648C12 96.996 17.004 102 23.176 102h67.648C96.996 102 102 96.996 102 90.824V23.176Z" style="fill:#635091" transform="matrix(.70175 0 0 .70176 10 5)"/>
  <path d="M93 31.281C93 25.603 88.397 21 82.719 21H31.281C25.603 21 21 25.603 21 31.281v51.438C21 88.397 25.603 93 31.281 93h51.438C88.397 93 93 88.397 93 82.719V31.281Z" style="fill:#392b55" transform="matrix(.81571 0 0 .81572 3.504 -1.496)"/>
  <path d="m81 42 .438-9.097S64.22 27.241 63 42.75v12h-8.25V66H63v27h9.75V66h6.652L81 54.75h-7.5V46.5s-.193-4.951 7.5-4.5Z" style="fill:#e5ad66" transform="matrix(.70175 0 0 .70176 10 5)"/>
</svg>
