<svg viewBox="0 0 64 64" xmlns="http://www.w3.org/2000/svg" xml:space="preserve" style="fill-rule:evenodd;clip-rule:evenodd;stroke-linejoin:round;stroke-miterlimit:2">
  <path style="fill:#5c288e" d="M0 0h112.12v94H0z" transform="scale(.57082 .68085)"/>
  <path d="M112.12 22.656C112.12 10.152 99.56 0 84.09 0H28.03C12.56 0 0 10.152 0 22.656v45.313c0 12.504 12.56 22.656 28.03 22.656h56.06c15.47 0 28.03-10.152 28.03-22.656V22.656Z" style="fill:#e5b75b" transform="matrix(.51914 0 0 .64227 2.897 2.897)"/>
  <path d="m56.065 0-.019.01-.041.002c-8.346.011-16.68 3.261-22.89 9.258-3.044 2.937-5.552 6.59-7.328 10.646-.533-.403-1.067-.797-1.596-1.207-.152-3.498-2.025-6.956-5.051-8.705-4.579-2.644-11.262-1.06-13.957 3.61h-.002a9.852 9.852 0 0 0-1.227 3.86 9.85 9.85 0 0 0-2.727 2.985l-.003.005C-1.472 25.133.5 31.71 5.078 34.353l.007.005c3.026 1.739 6.954 1.631 10.056.012a180.044 180.044 0 0 1 8.032 3.516c.238 1.891.629 3.76 1.171 5.587-1.205 4.455-.714 8.978.537 12.929a188.765 188.765 0 0 1-9.733 4.31c-3.105-1.619-7.037-1.729-10.063.02h-.004c-4.577 2.64-6.549 9.222-3.85 13.889l.002.004c.683 1.184 1.634 2.186 2.73 2.991a9.884 9.884 0 0 0 1.224 3.85l.005.006c2.697 4.669 9.378 6.253 13.957 3.61a.017.017 0 0 0 .005-.002c3.022-1.749 4.893-5.208 5.043-8.704a188.351 188.351 0 0 1 10.23-7.371c.351.193.69.393 1.056.559l1.117 2.441c1.206 2.624 2.579 3.399 3.866 4.164 1.29.764 2.652 1.295 4.203 1.744 3.099.898 6.926 1.408 11.392 1.408h.125c4.468 0 8.29-.51 11.391-1.408 1.549-.448 2.917-.98 4.202-1.744 1.289-.765 2.663-1.539 3.864-4.164l1.152-2.513c.31-.144.602-.323.899-.488 3.493 2.341 6.906 4.8 10.233 7.371.151 3.499 2.019 6.955 5.04 8.702l.008.003c4.576 2.642 11.261 1.06 13.956-3.611a9.857 9.857 0 0 0 3.959-6.849l.003-.002c2.695-4.67.722-11.249-3.856-13.892-3.027-1.746-6.96-1.64-10.065-.019a185.903 185.903 0 0 1-9.734-4.312c1.253-3.956 1.742-8.483.533-12.945a34.839 34.839 0 0 0 1.17-5.57 187.117 187.117 0 0 1 8.036-3.516c3.105 1.618 7.03 1.728 10.055-.015l.007-.002c4.578-2.644 6.551-9.22 3.854-13.89l-.002-.009c-.684-1.18-1.634-2.182-2.729-2.984-.15-1.352-.544-2.676-1.227-3.859a.008.008 0 0 1-.002-.005c-1.715-2.973-5.047-4.896-8.428-4.999a10.473 10.473 0 0 0-5.529 1.394h-.003c-3.025 1.749-4.898 5.203-5.051 8.704-.528.412-1.063.802-1.594 1.207-1.776-4.056-4.286-7.708-7.327-10.646C72.78 3.252 64.428 0 56.066 0h-.001Zm1.238 14.986c2.189.03 4.3.245 6.313.618 5.995 1.12 10.763 3.58 13.858 5.632 3.126 2.074 4.622 3.737 4.466 3.944-.208.274-2.047-.927-5.277-2.552-3.202-1.607-7.87-3.651-13.479-4.553a40.313 40.313 0 0 0-5.918-.512 44.22 44.22 0 0 0-9.517.921c-4.599.944-8.352 2.412-11.038 3.581-2.73 1.399-4.412 2.112-4.556 1.875-.144-.236 1.275-1.392 3.829-3.173 2.575-1.568 6.397-3.416 11.232-4.616a39.73 39.73 0 0 1 10.088-1.165h-.001ZM37.832 70.442c-.014-.004.04.008.027.003.013.004.02.01.034.014l-.061-.017Z" style="fill:#b10887;fill-rule:nonzero" transform="matrix(.47918 0 0 .59283 5.137 5.137)"/>
  <path d="M14.254 16.501c-1.824-.071-3.516.843-4.404 2.379-.785 1.363-.836 3.04-.137 4.493-1.605.122-3.029 1.004-3.817 2.363-1.333 2.307-.462 5.343 1.931 6.726 2.289 1.32 5.21.689 6.626-1.429a189.925 189.925 0 0 1 13.745 6.003 17.059 17.059 0 0 0-.793 5.003c.005 2.795.709 5.563 2.074 8.157a5.922 5.922 0 0 0-.836 1.552c-.939 2.677-.358 5.592 1.157 8.408.331.616.731 1.23 1.184 1.828-5.308 2.657-10.773 5.139-16.526 7.375-1.415-2.121-4.339-2.753-6.63-1.431-2.393 1.382-3.265 4.418-1.933 6.725l.001.003c.787 1.36 2.213 2.243 3.819 2.365-.697 1.453-.645 3.129.14 4.491 1.332 2.307 4.396 3.069 6.789 1.689 2.287-1.323 3.202-4.168 2.075-6.454 5.236-4.205 10.552-7.968 15.957-11.479 1.122.654 2.4 1.184 3.894 1.489h.001l2.223 3.834c.97 1.673 6.858 3.275 15.377 3.275h.127c8.52 0 14.41-1.602 15.381-3.275l2.24-3.868a12.656 12.656 0 0 0 3.75-1.461c5.408 3.512 10.726 7.278 15.964 11.483-1.128 2.286-.213 5.132 2.075 6.456 2.394 1.382 5.46.62 6.792-1.688l.001-.001c.782-1.361.833-3.035.136-4.485 1.608-.122 3.035-1.005 3.822-2.367l.001-.001c1.332-2.308.459-5.344-1.934-6.726-2.29-1.321-5.214-.689-6.629 1.432-5.757-2.239-11.227-4.722-16.538-7.379.455-.601.854-1.216 1.184-1.834 1.515-2.818 2.097-5.731 1.159-8.41a5.803 5.803 0 0 0-.841-1.561c1.366-2.591 2.071-5.357 2.079-8.15a17.088 17.088 0 0 0-.786-4.992 189.954 189.954 0 0 1 13.748-5.999c1.416 2.118 4.335 2.748 6.624 1.43 2.394-1.382 3.267-4.417 1.936-6.725-.788-1.36-2.213-2.242-3.819-2.363.698-1.453.646-3.13-.139-4.492-.826-1.43-2.353-2.328-4.046-2.381l-.013-.009a5.178 5.178 0 0 0-2.741.694c-2.291 1.323-3.207 4.171-2.077 6.458a189.922 189.922 0 0 1-11.706 8.645c-4.837-7.464-14.837-12.21-25.745-12.22l-.006.006c-10.907.004-20.911 4.743-25.756 12.203a189.112 189.112 0 0 1-11.695-8.634c1.129-2.286.213-5.134-2.077-6.457a5.197 5.197 0 0 0-2.389-.694h.001Z" style="fill:#e5b75b" transform="matrix(.47918 0 0 .59283 5.137 5.137)"/>
  <path d="M54.115 19.059c-6.471 0-13.152.561-18.776 6.055-4.566 3.071-7.87 7.088-9.511 11.561-1.116-.153-6.042 1.91-1.131 5.993-.008.149-.014.301-.02.45.004 3.062.775 6.093 2.269 8.933a6.373 6.373 0 0 0-.915 1.697c-1.028 2.931-.395 6.123 1.266 9.208s4.644 6.215 9.602 7.228h.002l2.434 4.203c.764 1.32 4.359 2.59 9.782 3.201h-.469l3.762 6.517 3.761 6.518 3.765-6.518 3.761-6.517h-.324c5.423-.611 9.016-1.881 9.78-3.201l2.454-4.235c4.864-1.05 7.803-4.144 9.444-7.196 1.661-3.085 2.295-6.28 1.267-9.213a6.358 6.358 0 0 0-.92-1.704c1.495-2.838 2.267-5.867 2.275-8.925a18.68 18.68 0 0 0-.126-1.949c2.944-2.501.483-1.825-1.641-4.38-4.524-5.938-10.233-13.125-16.356-15.41-4.709-2.391-4.207-2.059-9.667-2.059l-5.768-.257Zm1.358 9.677c8.641-.179 18.545 1.811 28.673 8.297l.002.012-5.089 4.231c-.816-1.661-2.327-2.289-4.298-2.307-2.065-.019-4.63.615-7.392 1.381-3.945 1.09-7.29 2.173-8.71 4.163h-6.728c-1.419-1.99-4.762-3.073-8.71-4.162-2.76-.762-5.323-1.397-7.392-1.377-2.006.018-3.543.666-4.346 2.4l-3.638-3.025c.138-.611.308-1.219.513-1.82 3.48-2.084 13.79-7.518 27.115-7.793Zm29.368 14.678c-.187 2.322-.858 4.608-1.984 6.768a5.77 5.77 0 0 1 .841 1.558c.937 2.679.358 5.595-1.158 8.413-1.498 2.789-4.185 5.613-8.625 6.571l-2.24 3.866c-.971 1.674-6.859 3.275-15.38 3.275h-.128c-8.518 0-14.408-1.601-15.379-3.275l-2.219-3.832h-.005c-4.526-.928-7.253-3.785-8.767-6.601-1.514-2.815-2.099-5.734-1.158-8.412a5.882 5.882 0 0 1 .835-1.548 17.98 17.98 0 0 1-1.733-4.999l3.463 2.88c.865 4.294 3.35 8.859 7.286 9.946 5.232 1.444 11.24-3.746 13.368-8.178h6.88c2.128 4.432 8.136 9.621 13.368 8.178 3.984-1.099 6.487-5.767 7.321-10.108l5.414-4.502Zm-7.121 1.094c.661 0 1.194.619 1.194 1.387v2.473c0 .769-.533 1.387-1.194 1.387-.662 0-1.192-.618-1.192-1.387v-2.472c0-.768.53-1.388 1.192-1.388ZM55.294 52.06l-.033.015c-3.227 1.594-5.841 5.124-5.84 7.883 0 2.759 2.614 3.704 5.84 2.112l.037-.016.035.016c3.225 1.591 5.84.648 5.84-2.11s-2.613-6.287-5.84-7.879l-.033-.013-.006-.008Z" style="fill:#b10887;fill-rule:nonzero" transform="matrix(.47918 0 0 .59283 5.137 5.137)"/>
</svg>
