<svg xmlns="http://www.w3.org/2000/svg" xml:space="preserve" style="fill-rule:evenodd;clip-rule:evenodd;stroke-linejoin:round;stroke-miterlimit:2" viewBox="0 0 60 60">
  <path d="M57.782 26.25v8.5a4.252 4.252 0 0 1-4.25 4.25H5.25A4.252 4.252 0 0 1 1 34.75v-8.5A4.252 4.252 0 0 1 5.25 22h48.282a4.252 4.252 0 0 1 4.25 4.25ZM1.891 18.5C.333 3.397 5.391 3 5.391 3h47c6.468 1.426 4.5 15.5 4.5 15.5h-55Zm0 24h55s1.968 14.074-4.5 15.5h-47s-5.058-.397-3.5-15.5Z" style="fill:#9f47bf" transform="translate(.61 -.5)"/>
</svg>
