<?xml version="1.0" encoding="UTF-8" standalone="no"?><!DOCTYPE svg PUBLIC "-//W3C//DTD SVG 1.1//EN" "http://www.w3.org/Graphics/SVG/1.1/DTD/svg11.dtd"><svg width="100%" height="100%" viewBox="0 0 48 48" version="1.1" xmlns="http://www.w3.org/2000/svg" xmlns:xlink="http://www.w3.org/1999/xlink" xml:space="preserve" xmlns:serif="http://www.serif.com/" style="fill-rule:evenodd;clip-rule:evenodd;stroke-linejoin:round;stroke-miterlimit:2;"><circle id="BG-Ellipse" cx="24" cy="24" r="24" style="fill:#341a42;"/><path d="M39.791,13.62c0,-2.988 -2.423,-5.411 -5.411,-5.411l-20.76,-0c-2.988,-0 -5.411,2.423 -5.411,5.411l-0,20.76c-0,2.988 2.423,5.411 5.411,5.411l20.76,0c2.988,0 5.411,-2.423 5.411,-5.411l0,-20.76Zm-3.012,3.012c0,-2.988 -2.423,-5.411 -5.411,-5.411l-14.736,-0c-2.988,-0 -5.411,2.423 -5.411,5.411l-0,14.736c-0,2.988 2.423,5.411 5.411,5.411l14.736,0c2.988,0 5.411,-2.423 5.411,-5.411l0,-14.736Zm-12.779,-0.771c4.492,0 8.139,3.647 8.139,8.139c-0,4.492 -3.647,8.139 -8.139,8.139c-4.492,-0 -8.139,-3.647 -8.139,-8.139c0,-4.492 3.647,-8.139 8.139,-8.139Zm-0,3.174c2.74,0 4.965,2.225 4.965,4.965c-0,2.74 -2.225,4.965 -4.965,4.965c-2.74,-0 -4.965,-2.225 -4.965,-4.965c0,-2.74 2.225,-4.965 4.965,-4.965Zm8.139,-5.542c0.999,0 1.822,0.822 1.822,1.822c-0,0.999 -0.823,1.822 -1.822,1.822c-1,-0 -1.822,-0.823 -1.823,-1.822c0.001,-1 0.823,-1.822 1.823,-1.822Z" style="fill:#fff;"/></svg>