<svg xmlns="http://www.w3.org/2000/svg" xml:space="preserve" style="fill-rule:evenodd;clip-rule:evenodd;stroke-linejoin:round;stroke-miterlimit:2" viewBox="0 0 100 90">
  <path style="fill:none" d="M0 0h103v106H0z" transform="scale(.97087 .84906)"/>
  <path d="M114 14.156C114 6.338 107.662 0 99.844 0H14.156C6.338 0 0 6.338 0 14.156v85.688C0 107.662 6.338 114 14.156 114h85.688c7.818 0 14.156-6.338 14.156-14.156V14.156Zm-12 9.02C102 17.004 96.996 12 90.824 12H23.176C17.004 12 12 17.004 12 23.176v67.648C12 96.996 17.004 102 23.176 102h67.648C96.996 102 102 96.996 102 90.824V23.176Z" style="fill:#635091" transform="matrix(.70175 0 0 .70176 10 5)"/>
  <path d="M93 31.281C93 25.603 88.397 21 82.719 21H31.281C25.603 21 21 25.603 21 31.281v51.438C21 88.397 25.603 93 31.281 93h51.438C88.397 93 93 88.397 93 82.719V31.281Z" style="fill:#392b55" transform="matrix(.81571 0 0 .81572 3.504 -1.496)"/>
  <path d="M87 37.281C87 31.603 82.397 27 76.719 27H37.281C31.603 27 27 31.603 27 37.281v39.438C27 82.397 31.603 87 37.281 87h39.438C82.397 87 87 82.397 87 76.719V37.281Zm-5.722 5.722c0-5.678-4.603-10.281-10.281-10.281H43.003c-5.678 0-10.281 4.603-10.281 10.281v27.994c0 5.678 4.603 10.281 10.281 10.281h27.994c5.678 0 10.281-4.603 10.281-10.281V43.003ZM57 41.538c8.534 0 15.462 6.928 15.462 15.462 0 8.534-6.928 15.462-15.462 15.462-8.534 0-15.462-6.928-15.462-15.462 0-8.534 6.928-15.462 15.462-15.462Zm0 6.03c5.206 0 9.432 4.226 9.432 9.432S62.206 66.432 57 66.432 47.568 62.206 47.568 57s4.226-9.432 9.432-9.432Zm15.462-10.53a3.48 3.48 0 0 1 3.462 3.462 3.48 3.48 0 0 1-3.462 3.462A3.48 3.48 0 0 1 69 40.5a3.48 3.48 0 0 1 3.462-3.462Z" style="fill:#e5ad66" transform="translate(4.564 -.436) scale(.79712)"/>
</svg>
