<svg viewBox="0 0 80 80" xmlns="http://www.w3.org/2000/svg" xml:space="preserve" style="fill-rule:evenodd;clip-rule:evenodd;stroke-linejoin:round;stroke-miterlimit:2">
  <ellipse cx="27.556" cy="18.636" rx="16.267" ry="16.082" style="fill:#9f47bf"/>
  <path d="M25.251 10.232c5.921-2.015 12.221.852 14.061 6.398 1.84 5.546-1.473 11.684-7.394 13.698-5.921 2.015-12.221-.852-14.061-6.398-1.84-5.546 1.473-11.684 7.394-13.698Zm15.745 29.88c1.426-.885 2.89-1.093 3.267-.465.378.629-.474 1.858-1.9 2.743-1.426.885-2.89 1.093-3.267.464-.377-.628.474-1.857 1.9-2.742Zm-5.582-7.316c1.503-.983 3.111-1.171 3.589-.42.479.751-.353 2.158-1.856 3.14-1.503.982-3.111 1.17-3.59.419-.478-.75.354-2.157 1.857-3.139Z" style="fill:#e3dde9"/>
  <path d="m38.824 34.07 3.606 4.944-3.241 2.444-3.606-4.944 3.241-2.444Z" style="fill:#e5b75b"/>
  <path d="M48.148 42.305c9.382 7.454 15.912 17.446 20.85 28.856-1.267 4.072-3.916 6.219-8.205 6.08-8.701-6.286-16.23-14.803-20.85-28.855.854-5.282 3.795-6.951 8.205-6.081Z" style="fill:#201437"/>
  <path d="M33.353 36.101c-13.287 5.744-26.912-5.718-23.85-19.824C12.639 1.831 30.313-4.094 40.77 5.41c7.437 6.758 7.929 19.434-1.292 26.905.124.294.133.648.003 1.039a2.46 2.46 0 0 1-.179.4l3.585 4.916c.018.024.034.05.047.076.303-.045.578-.05.811-.014.472.071.812.295 1.003.614.145.24.203.531.158.855 1.094-.137 2.3-.078 3.612.181.3.059.583.19.824.381 9.633 7.654 16.359 17.897 21.428 29.611.188.434.214.923.073 1.375-.771 2.48-2.002 4.347-3.655 5.6-1.676 1.27-3.807 1.936-6.457 1.851a1.924 1.924 0 0 1-1.062-.364c-8.996-6.499-16.785-15.302-21.562-29.831a1.995 1.995 0 0 1-.074-.936c.286-1.765.788-3.191 1.46-4.322-.409-.089-.707-.3-.882-.592-.192-.319-.232-.729-.079-1.188.03-.091.069-.184.116-.28l-3.522-4.829a.58.58 0 0 1-.108-.275 2.7 2.7 0 0 1-.75.006c-.406-.062-.715-.236-.915-.488Zm2.321-4.504-.004-.007c12.164-9.666 4.815-26.662-8.976-23.966-9.697 1.896-15.427 13.901-8.464 21.771 1.909 2.157 4.562 3.555 7.466 4.038 5.384.896 9.313-1.491 9.978-1.836Zm11.657 12.552-.004-.001c-1.408-.223-2.602-.132-3.52.506-.955.664-1.536 1.861-1.871 3.586 4.387 13.029 11.387 21.078 19.487 27.045 1.383-.036 2.532-.38 3.447-1.074.905-.686 1.567-1.691 2.05-2.964-4.701-10.661-10.85-20.03-19.589-27.098Zm-3.73-3.676a1.67 1.67 0 0 0 .065-.115c.052-.1.091-.194.109-.284.01-.047.024-.091.003-.125-.021-.035-.065-.042-.111-.055a1.056 1.056 0 0 0-.298-.032c-.564.009-1.324.276-2.077.743l-.115.073-.703.531c-.353.31-.623.633-.781.935a1.084 1.084 0 0 0-.109.284c-.009.047-.024.091-.003.125.021.035.065.042.111.055.087.024.187.033.298.031.1-.001.205-.011.315-.028a6.99 6.99 0 0 1 1.312-1.188 6.95 6.95 0 0 1 1.984-.95Zm-3.073-.744 1.107-.835-2.929-4.016-2.328 1.756 2.929 4.016.511-.386c.215-.185.453-.366.71-.535Zm-4.878-6.798c-1.426.885-2.278 2.113-1.9 2.742.377.629 1.841.42 3.267-.465s2.277-2.113 1.9-2.742c-.377-.628-1.841-.42-3.267.465Z"/>
</svg>