<?xml version="1.0" encoding="UTF-8" standalone="no"?>
<!DOCTYPE svg PUBLIC "-//W3C//DTD SVG 1.1//EN" "http://www.w3.org/Graphics/SVG/1.1/DTD/svg11.dtd">
<svg width="100%" height="100%" viewBox="0 0 80 80" version="1.1" xmlns="http://www.w3.org/2000/svg" xmlns:xlink="http://www.w3.org/1999/xlink" xml:space="preserve" xmlns:serif="http://www.serif.com/" style="fill-rule:evenodd;clip-rule:evenodd;stroke-linejoin:round;stroke-miterlimit:2;">
    <g transform="matrix(1.64098,-1.2161,1.22359,1.69338,-16.1594,63.7374)">
        <path d="M27.175,9.322C26.101,8.952 25.06,8.422 24.09,7.725C18.949,4.033 17.742,-2.915 21.366,-7.776C24.99,-12.636 32.103,-13.609 37.245,-9.917C42.386,-6.225 43.593,0.723 39.968,5.583C38.053,8.152 35.164,9.634 32.107,9.917C33.573,15.802 33.282,21.854 32,28C30.329,29.309 28.663,29.385 27,28C25.349,22.683 24.804,16.797 27,9.5C27.059,9.439 27.117,9.379 27.175,9.322ZM35.561,-7.659C31.721,-10.416 26.403,-9.732 23.697,-6.102C20.99,-2.472 21.934,2.709 25.774,5.466C29.613,8.224 34.931,7.54 37.638,3.91C40.344,0.28 39.4,-4.902 35.561,-7.659Z" style="fill:#5f2e71;"/>
    </g>
    <g transform="matrix(1,0,0,1,7.3235,0.586732)">
        <path d="M39.204,44.594C38.876,44.154 38.967,43.531 39.406,43.204C39.846,42.876 40.469,42.967 40.796,43.406L52.917,58.317C53.245,58.756 53.154,59.379 52.715,59.707C52.275,60.035 51.652,59.944 51.325,59.504L39.204,44.594ZM25.5,8.896C34.031,8.896 40.933,15.677 40.933,24C40.933,32.323 34.031,39.104 25.5,39.104C16.969,39.104 10.067,32.323 10.067,24C10.067,15.677 16.969,8.896 25.5,8.896ZM25.5,12.763C19.129,12.763 13.933,17.785 13.933,24C13.933,30.215 19.129,35.237 25.5,35.237C31.871,35.237 37.067,30.215 37.067,24C37.067,17.785 31.871,12.763 25.5,12.763Z" style="fill:#9f47bf;"/>
    </g>
</svg>
