<svg viewBox="0 0 106 106" xmlns="http://www.w3.org/2000/svg" xml:space="preserve" style="fill-rule:evenodd;clip-rule:evenodd;stroke-linejoin:round;stroke-miterlimit:2">
  <path d="M114 14.156C114 6.338 107.662 0 99.844 0H14.156C6.338 0 0 6.338 0 14.156v85.688C0 107.662 6.338 114 14.156 114h85.688c7.818 0 14.156-6.338 14.156-14.156V14.156Zm-12 9.02C102 17.004 96.996 12 90.824 12H23.176C17.004 12 12 17.004 12 23.176v67.648C12 96.996 17.004 102 23.176 102h67.648C96.996 102 102 96.996 102 90.824V23.176Z" style="fill:#635091" transform="translate(8 8) scale(.78948)"/>
  <path d="M93 31.281C93 25.603 88.397 21 82.719 21H31.281C25.603 21 21 25.603 21 31.281v51.438C21 88.397 25.603 93 31.281 93h51.438C88.397 93 93 88.397 93 82.719V31.281Z" style="fill:#392b55" transform="translate(.692 .692) scale(.91768)"/>
  <path d="m30.878 76.502 15.783-22.746 7.702 10.797a1.45 1.45 0 0 0 2.42 0l7.691-10.786 16.537 23.834c.02.029.041.057.063.085a10.75 10.75 0 0 1-4.336.907H37.262c-2.388 0-4.596-.777-6.384-2.091Zm50.774-39.913a10.815 10.815 0 0 1 5.883 9.614v21.594c0 2.232-.679 4.307-1.841 6.028 0 0-16.83-24.189-16.986-24.291l12.944-12.945Zm-51.044 1.114 11.823 11.823c-.161.103-15.337 21.905-15.337 21.905a10.764 10.764 0 0 1-.629-3.634V46.203c0-3.449 1.622-6.523 4.143-8.5Zm43.886-2.296S55.863 57.029 55.809 57.113h-.471c-.055-.084-18.669-21.69-18.669-21.69.196-.011 37.825-.016 37.825-.016Z" style="fill:#e5ad66" transform="translate(6.616 6.616) scale(.81376)"/>
</svg>
