<svg xmlns="http://www.w3.org/2000/svg" xml:space="preserve" style="fill-rule:evenodd;clip-rule:evenodd;stroke-linejoin:round;stroke-miterlimit:2" viewBox="0 0 100 90">
  <path style="fill:none" d="M0 0h103v106H0z" transform="scale(.97087 .84906)"/>
  <path d="M114 14.156C114 6.338 107.662 0 99.844 0H14.156C6.338 0 0 6.338 0 14.156v85.688C0 107.662 6.338 114 14.156 114h85.688c7.818 0 14.156-6.338 14.156-14.156V14.156Zm-12 9.02C102 17.004 96.996 12 90.824 12H23.176C17.004 12 12 17.004 12 23.176v67.648C12 96.996 17.004 102 23.176 102h67.648C96.996 102 102 96.996 102 90.824V23.176Z" style="fill:#635091" transform="matrix(.70175 0 0 .70176 10 5)"/>
  <path d="M93 31.281C93 25.603 88.397 21 82.719 21H31.281C25.603 21 21 25.603 21 31.281v51.438C21 88.397 25.603 93 31.281 93h51.438C88.397 93 93 88.397 93 82.719V31.281Z" style="fill:#392b55" transform="matrix(.81571 0 0 .81572 3.504 -1.496)"/>
  <path d="M82.07 35.948c-2.063 1.263-4.392 2.101-6.974 2.532 0 0-3.588-4.694-11.3-2.766-9.195 2.299-7.325 13.014-7.325 13.014-9.152-.509-16.703-4.423-22.739-11.555-2.67 5.312-1.763 10.207 3.36 14.611-1.607.186-3.214-.121-4.821-1.364-.084 5.528 2.973 9.084 8.474 11.104-1.173.29-2.837.335-4.675.293 2.119 5.003 5.6 7.191 10.13 7.208-4.37 3.863-9.699 5.396-15.887 4.844 0 0 17.33 12.523 37.116-2.545C79.681 59.27 78.007 45.983 78.007 45.983c2.322-1.534 4.189-3.465 5.68-5.726-2.539 1.016-4.63 1.533-6.234 1.51 0 0 2.951-1.294 4.617-5.819Z" style="fill:#e5ad66" transform="translate(2.552 -2.448) scale(.83242)"/>
</svg>
