<?xml version="1.0" encoding="UTF-8" standalone="no"?><!DOCTYPE svg PUBLIC "-//W3C//DTD SVG 1.1//EN" "http://www.w3.org/Graphics/SVG/1.1/DTD/svg11.dtd"><svg width="100%" height="100%" viewBox="0 0 48 48" version="1.1" xmlns="http://www.w3.org/2000/svg" xmlns:xlink="http://www.w3.org/1999/xlink" xml:space="preserve" xmlns:serif="http://www.serif.com/" style="fill-rule:evenodd;clip-rule:evenodd;stroke-linejoin:round;stroke-miterlimit:2;"><circle id="BG-Ellipse" cx="24" cy="24" r="24" style="fill:#341a42;"/><path d="M41.092,9.647c-1.406,0.861 -2.994,1.433 -4.755,1.726c0,0 -2.446,-3.2 -7.704,-1.885c-6.269,1.567 -4.994,8.872 -4.994,8.872c-6.239,-0.347 -11.387,-3.015 -15.503,-7.878c-1.82,3.622 -1.201,6.959 2.291,9.962c-1.095,0.127 -2.191,-0.083 -3.287,-0.93c-0.057,3.769 2.027,6.193 5.778,7.57c-0.8,0.198 -1.934,0.229 -3.188,0.2c1.445,3.411 3.818,4.903 6.907,4.914c-2.98,2.634 -6.613,3.679 -10.832,3.303c0,-0 11.816,8.538 25.305,-1.735c8.353,-8.218 7.212,-17.277 7.212,-17.277c1.583,-1.046 2.856,-2.363 3.873,-3.904c-1.732,0.693 -3.157,1.045 -4.251,1.029c0,0 2.012,-0.882 3.148,-3.967Z" style="fill:#fff;"/></svg>