<?xml version="1.0" encoding="UTF-8" standalone="no"?>
<!DOCTYPE svg PUBLIC "-//W3C//DTD SVG 1.1//EN" "http://www.w3.org/Graphics/SVG/1.1/DTD/svg11.dtd">
<svg width="100%" height="100%" viewBox="0 0 106 106" version="1.1" xmlns="http://www.w3.org/2000/svg" xmlns:xlink="http://www.w3.org/1999/xlink" xml:space="preserve" xmlns:serif="http://www.serif.com/" style="fill-rule:evenodd;clip-rule:evenodd;stroke-linejoin:round;stroke-miterlimit:2;">
    <g id="ICONS" transform="matrix(1.15385,0,0,1.15385,1.07692,1.07692)">
        <g transform="matrix(0.684211,0,0,0.684211,6,6)">
            <path d="M114,14.156C114,6.338 107.662,0 99.844,0L14.156,0C6.338,0 0,6.338 0,14.156L0,99.844C0,107.662 6.338,114 14.156,114L99.844,114C107.662,114 114,107.662 114,99.844L114,14.156ZM102,23.176C102,17.004 96.996,12 90.824,12L23.176,12C17.004,12 12,17.004 12,23.176L12,90.824C12,96.996 17.004,102 23.176,102L90.824,102C96.996,102 102,96.996 102,90.824L102,23.176Z" style="fill:#635091;"/>
        </g>
        <g transform="matrix(0.795322,0,0,0.795322,-0.333333,-0.333333)">
            <path d="M93,31.281C93,25.603 88.397,21 82.719,21L31.281,21C25.603,21 21,25.603 21,31.281L21,82.719C21,88.397 25.603,93 31.281,93L82.719,93C88.397,93 93,88.397 93,82.719L93,31.281Z" style="fill:#392b55;"/>
        </g>
        <g transform="matrix(0.705256,0,0,0.705256,4.80039,4.80039)">
            <path d="M30.878,76.502L46.661,53.756L54.363,64.553C54.631,64.959 55.086,65.204 55.573,65.204C56.06,65.204 56.515,64.959 56.783,64.553L64.474,53.767L81.011,77.601C81.031,77.63 81.052,77.658 81.074,77.686C79.707,78.286 78.231,78.595 76.738,78.593L37.262,78.593C34.874,78.593 32.666,77.816 30.878,76.502ZM81.652,36.589C85.257,38.433 87.534,42.154 87.535,46.203L87.535,67.797C87.535,70.029 86.856,72.104 85.694,73.825C85.694,73.825 68.864,49.636 68.708,49.534L81.652,36.589ZM30.608,37.703L42.431,49.526C42.27,49.629 27.094,71.431 27.094,71.431C26.677,70.265 26.464,69.036 26.465,67.797L26.465,46.203C26.465,42.754 28.087,39.68 30.608,37.703ZM74.494,35.407C74.494,35.407 55.863,57.029 55.809,57.113L55.338,57.113C55.283,57.029 36.669,35.423 36.669,35.423C36.865,35.412 74.494,35.407 74.494,35.407Z" style="fill:#e5ad66;"/>
        </g>
    </g>
</svg>
