<?xml version="1.0" encoding="UTF-8" standalone="no"?>

<svg
   width="30px"
   height="30px"
   viewBox="0 0 22.212149 23.153545"
   version="1.1"
   id="mg-icon"
   xmlns="http://www.w3.org/2000/svg"
   xmlns:svg="http://www.w3.org/2000/svg">
  <defs
     id="defs2" />
  <g
     id="layer1"
     transform="translate(-46.271594,-48.254936)">
    <path
       id="path111"
       style="fill:#520052;fill-opacity:1;stroke-width:0.0656084"
       d="m 55.165876,48.254936 a 8.8943311,6.9897929 0 0 0 -8.894282,6.989718 8.8943311,6.9897929 0 0 0 8.894282,6.989837 8.8943311,6.9897929 0 0 0 1.245554,-0.07102 l 5.826203,7.900941 c 0.983717,1.334047 3.055251,1.743323 4.644708,0.917678 1.589461,-0.825643 2.077093,-2.564298 1.093376,-3.898347 l -5.665769,-7.683524 a 8.8943311,6.9897929 0 0 0 1.75021,-4.155561 8.8943311,6.9897929 0 0 0 -8.894282,-6.989718 z" />
    <ellipse
       style="fill:#ffcd9f;fill-opacity:1;stroke-width:0.0729959"
       id="path330"
       cx="55.450172"
       cy="55.240204"
       rx="5.9442377"
       ry="4.6311355" />
  </g>
</svg>
