<?xml version="1.0" encoding="UTF-8" standalone="no"?>
<!DOCTYPE svg PUBLIC "-//W3C//DTD SVG 1.1//EN" "http://www.w3.org/Graphics/SVG/1.1/DTD/svg11.dtd">
<svg width="100%" height="100%" viewBox="0 0 106 106" version="1.1" xmlns="http://www.w3.org/2000/svg" xmlns:xlink="http://www.w3.org/1999/xlink" xml:space="preserve" xmlns:serif="http://www.serif.com/" style="fill-rule:evenodd;clip-rule:evenodd;stroke-linejoin:round;stroke-miterlimit:2;">
    <g id="ICONS" transform="matrix(1.15385,0,0,1.15385,1.07692,1.07692)">
        <g transform="matrix(0.684211,0,0,0.684211,6,6)">
            <path d="M114,14.156C114,6.338 107.662,0 99.844,0L14.156,0C6.338,0 0,6.338 0,14.156L0,99.844C0,107.662 6.338,114 14.156,114L99.844,114C107.662,114 114,107.662 114,99.844L114,14.156ZM102,23.176C102,17.004 96.996,12 90.824,12L23.176,12C17.004,12 12,17.004 12,23.176L12,90.824C12,96.996 17.004,102 23.176,102L90.824,102C96.996,102 102,96.996 102,90.824L102,23.176Z" style="fill:#635091;"/>
        </g>
        <g transform="matrix(0.795322,0,0,0.795322,-0.333333,-0.333333)">
            <path d="M93,31.281C93,25.603 88.397,21 82.719,21L31.281,21C25.603,21 21,25.603 21,31.281L21,82.719C21,88.397 25.603,93 31.281,93L82.719,93C88.397,93 93,88.397 93,82.719L93,31.281Z" style="fill:#392b55;"/>
        </g>
        <g transform="matrix(0.654548,0,0,0.654548,7.69074,7.69074)">
            <path d="M87.395,46.125C87.395,40.122 82.522,35.249 76.52,35.249L37.48,35.249C31.478,35.249 26.605,40.122 26.605,46.125L26.605,67.875C26.605,73.878 31.478,78.751 37.48,78.751L76.52,78.751C82.522,78.751 87.395,73.878 87.395,67.875L87.395,46.125ZM70.664,55.9C71.081,56.108 71.345,56.535 71.345,57C71.345,57.465 71.081,57.892 70.664,58.1L50.716,68.075C50.545,68.16 50.358,68.204 50.167,68.204C49.492,68.204 48.936,67.649 48.935,66.974L48.935,47.026C48.935,47.026 48.935,47.025 48.935,47.025C48.935,46.35 49.49,45.795 50.165,45.795C50.356,45.795 50.545,45.839 50.716,45.925L70.664,55.9Z" style="fill:#e5ad66;"/>
        </g>
    </g>
</svg>
